<?xml version="1.0" encoding="UTF-8" standalone="no"?>
<!-- Created with Inkscape (http://www.inkscape.org/) -->

<svg
   width="53.19112mm"
   height="26.277628mm"
   viewBox="0 0 53.19112 26.277628"
   version="1.1"
   id="svg1"
   inkscape:version="1.3.2 (091e20e, 2023-11-25, custom)"
   sodipodi:docname="diagnostico.svg"
   xml:space="preserve"
   xmlns:inkscape="http://www.inkscape.org/namespaces/inkscape"
   xmlns:sodipodi="http://sodipodi.sourceforge.net/DTD/sodipodi-0.dtd"
   xmlns="http://www.w3.org/2000/svg"
   xmlns:svg="http://www.w3.org/2000/svg"
   xmlns:rdf="http://www.w3.org/1999/02/22-rdf-syntax-ns#"
   xmlns:cc="http://creativecommons.org/ns#"
   xmlns:dc="http://purl.org/dc/elements/1.1/"><defs
     id="defs1" /><sodipodi:namedview
     id="base"
     pagecolor="#ffffff"
     bordercolor="#000000"
     borderopacity="0.3"
     inkscape:pageopacity="0.0"
     inkscape:pageshadow="2"
     inkscape:zoom="2.4178983"
     inkscape:cx="218.16468"
     inkscape:cy="105.2567"
     inkscape:document-units="mm"
     inkscape:showpageshadow="2"
     inkscape:pagecheckerboard="0"
     inkscape:deskcolor="#d1d1d1"
     inkscape:window-width="1920"
     inkscape:window-height="991"
     inkscape:window-x="-9"
     inkscape:window-y="-9"
     inkscape:window-maximized="1"
     inkscape:current-layer="svg1"><inkscape:page
       x="0"
       y="0"
       width="53.19112"
       height="26.277628"
       id="page1"
       margin="0 1.2036968 272.34766 0"
       bleed="0" /><inkscape:page
       x="99.218407"
       y="-25.422096"
       width="68.420998"
       height="0"
       id="page2"
       margin="0"
       bleed="0" /><inkscape:page
       x="53.181515"
       y="13.678374"
       width="0.87541592"
       height="0.10942699"
       id="page3"
       margin="0"
       bleed="0" /></sodipodi:namedview><metadata
     id="metadata1"><rdf:RDF><cc:Work
         rdf:about=""><dc:format>image/svg+xml</dc:format><dc:type
           rdf:resource="http://purl.org/dc/dcmitype/StillImage" /></cc:Work></rdf:RDF></metadata><circle
     style="fill:#00aa00;fill-opacity:1;stroke-width:0.143971"
     id="path1"
     cx="23.196226"
     cy="13.469584"
     r="4.5084162" /><rect
     style="fill:#00aa00;fill-opacity:1;stroke-width:0.143435"
     id="rect1"
     width="34.362621"
     height="1.9550153"
     x="18.920845"
     y="12.182054" /><g
     style="fill:#ffffff;stroke:#ffffff"
     id="g4"
     transform="matrix(0.00487391,0,0,0.00436325,20.767516,11.691465)"><g
       id="SVGRepo_bgCarrier"
       stroke-width="0" /><g
       id="SVGRepo_tracerCarrier"
       stroke-linecap="round"
       stroke-linejoin="round" /><g
       id="SVGRepo_iconCarrier"><path
         d="m 70,252 v 447 q 0,14 9.5,23.5 9.5,9.5 23.5,9.5 h 236 q 7,0 12,-4.5 5,-4.5 5,-11.5 v -22 q 0,-7 -5,-12 -5,-5 -12,-5 H 125 V 296 h 568 v 76 q 0,7 4.5,11.5 4.5,4.5 11.5,4.5 h 21 q 7,0 12,-4.5 5,-4.5 5,-11.5 V 252 Z m 677,-32 v -55 q 0,-13 -9.5,-23 Q 728,132 714,132 H 613 V 119 Q 613,107 607,96 601,85 590.5,79 580,73 568,73 556,73 545.5,79 535,85 529,96 q -6,11 -6,23 v 13 H 293 V 119 Q 293,100 280,87 267,74 248.5,74 230,74 217,87 q -13,13 -13,32 v 13 H 103 Q 89,132 79.5,142 70,152 70,165 v 55 z M 973,740 Q 921,789 852.5,804.5 784,820 716,798 649,776 580.5,791.5 512,807 460,856 L 382,509 Q 434,461 502.5,445.5 571,430 638,452 705,474 774,458.5 843,443 895,394 l 58,260 z m -445,238 -25,5 q -5,2 -9.5,-1 -4.5,-3 -5.5,-8 L 383,509 432,498 538,962 q 1,6 -2,10.5 -3,4.5 -8,5.5 z"
         id="path1-9" /></g></g></svg>
