<!DOCTYPE svg PUBLIC "-//W3C//DTD SVG 1.1//EN" "http://www.w3.org/Graphics/SVG/1.1/DTD/svg11.dtd">
<!-- Uploaded to: SVG Repo, www.svgrepo.com, Transformed by: SVG Repo Mixer Tools -->
<svg fill="#7275e4" version="1.1" id="Layer_1" xmlns="http://www.w3.org/2000/svg" xmlns:xlink="http://www.w3.org/1999/xlink" viewBox="0 0 512 512" xml:space="preserve" width="800px" height="800px" stroke="#7275e4">
<g id="SVGRepo_bgCarrier" stroke-width="0"/>
<g id="SVGRepo_tracerCarrier" stroke-linecap="round" stroke-linejoin="round"/>
<g id="SVGRepo_iconCarrier"> <g> <g> <path d="M459.856,2.639H137.237v21.113H57.422L0,81.175v428.186h512V54.783L459.856,2.639z M459.216,24.392l31.03,31.03h-31.03 V24.392z M42.227,493.526H15.835V87.733L63.98,39.588h73.257v73.897H50.144v15.835h87.093v89.732h-95.01V493.526z M496.165,493.526H58.062V234.887h438.103V493.526z M496.165,219.052H153.072V18.474h290.309v52.784h52.784V219.052z"/> </g> </g> <g> <g> <rect x="171.546" y="39.588" width="131.959" height="15.835"/> </g> </g> <g> <g> <rect x="171.546" y="71.258" width="26.392" height="15.835"/> </g> </g> <g> <g> <rect x="213.773" y="71.258" width="26.392" height="15.835"/> </g> </g> <g> <g> <rect x="277.113" y="71.258" width="26.392" height="15.835"/> </g> </g> <g> <g> <rect x="171.546" y="124.041" width="200.577" height="15.835"/> </g> </g> <g> <g> <rect x="171.546" y="166.268" width="306.144" height="15.835"/> </g> </g> <g> <g> <rect x="81.814" y="451.299" width="390.598" height="15.835"/> </g> </g> <g> <g> <polygon points="84.454,261.278 84.454,295.588 100.289,295.588 100.289,277.113 124.041,277.113 124.041,261.278 "/> </g> </g> <g> <g> <polygon points="430.186,261.278 430.186,277.113 453.938,277.113 453.938,295.588 469.773,295.588 469.773,261.278 "/> </g> </g> </g>
</svg>